<?xml version="1.0" standalone="no"?>
<!DOCTYPE svg PUBLIC "-//W3C//DTD SVG 20010904//EN"
 "http://www.w3.org/TR/2001/REC-SVG-20010904/DTD/svg10.dtd">
<svg version="1.0" xmlns="http://www.w3.org/2000/svg"
 width="659.000000pt" height="569.000000pt" viewBox="0 0 659.000000 569.000000"
 preserveAspectRatio="xMidYMid meet">

<g transform="translate(0.000000,569.000000) scale(0.100000,-0.100000)"
fill="#000000" stroke="none">
<path d="M2375 4973 c-50 -26 -60 -42 -101 -171 -3 -10 -10 -9 -32 6 -89 64
-216 40 -252 -48 -18 -43 -8 -119 24 -184 56 -115 356 -390 356 -327 0 5 37
57 83 115 222 283 259 443 133 568 -57 57 -147 75 -211 41z m112 -93 c50 -30
66 -71 61 -152 -5 -61 -15 -88 -97 -254 -50 -102 -91 -194 -91 -205 0 -10 -4
-19 -9 -19 -17 0 -237 238 -269 292 -42 70 -61 157 -43 191 15 28 50 47 87 47
35 0 75 -23 134 -75 28 -25 54 -45 58 -45 5 0 14 28 21 63 7 34 22 83 33 110
30 70 59 82 115 47z"/>
<path d="M3221 4444 c-72 -121 -270 -332 -441 -470 -103 -83 -96 -81 -121 -32
-28 56 -128 208 -137 208 -4 0 -22 -29 -41 -65 -18 -36 -43 -77 -54 -91 -24
-31 -90 -63 -129 -64 -16 0 -28 -3 -28 -8 0 -4 40 -48 90 -97 l89 -89 -57 -34
c-232 -141 -632 -324 -879 -403 -171 -54 -4 -25 233 42 249 70 513 177 715
290 151 85 142 71 84 126 -27 27 -72 67 -99 91 -28 24 -42 42 -33 42 27 0 79
52 102 102 l22 48 18 -47 c26 -70 106 -233 114 -233 14 0 161 106 258 187 99
82 209 191 295 293 l46 54 27 -34 c16 -19 89 -96 164 -170 338 -336 748 -566
1189 -666 157 -35 173 -29 41 15 -289 98 -539 227 -779 404 -213 157 -427 365
-566 550 -42 56 -80 103 -83 105 -3 1 -21 -23 -40 -54z"/>
<path d="M1923 4416 c-33 -30 -37 -39 -41 -94 l-4 -60 -46 -7 c-33 -5 -55 -16
-80 -41 -32 -32 -34 -38 -30 -88 12 -139 123 -175 374 -121 64 14 126 25 140
25 20 0 24 5 24 33 0 45 -26 141 -56 207 -51 113 -127 180 -201 180 -35 0 -50
-6 -80 -34z m124 -75 c39 -28 84 -92 156 -222 l37 -65 -133 -22 c-203 -34
-268 -27 -315 33 -57 72 4 154 93 125 29 -10 38 -9 59 7 15 10 23 24 20 33 -3
8 -8 33 -11 56 -4 34 -1 46 16 63 27 27 30 27 78 -8z"/>
<path d="M2793 3563 c-10 -3 -13 -44 -13 -154 l0 -149 -47 0 c-97 0 -93 -5
-93 140 0 71 -3 135 -6 144 -10 25 -53 20 -59 -6 -3 -13 -4 -162 -3 -333 l3
-310 25 0 25 0 8 150 c5 82 9 151 11 152 1 1 31 -1 66 -5 l65 -7 5 -140 5
-140 25 0 25 0 3 319 c2 343 0 358 -45 339z"/>
<path d="M3011 3534 c-22 -18 -37 -46 -53 -97 -20 -64 -23 -93 -23 -257 0
-159 3 -190 18 -218 50 -92 196 -98 244 -9 16 28 18 60 18 247 0 118 -4 232
-8 253 -4 20 -22 53 -39 72 -26 31 -36 35 -78 35 -38 0 -55 -6 -79 -26z m108
-55 c26 -28 34 -116 29 -327 -3 -160 -4 -164 -27 -184 -28 -22 -65 -18 -94 11
-30 29 -41 137 -28 276 14 143 25 192 54 223 26 28 41 28 66 1z"/>
<path d="M3315 3538 c-8 -35 -25 -617 -18 -633 7 -20 49 -19 57 1 4 9 9 106
13 216 3 115 10 194 15 186 4 -7 18 -44 29 -83 26 -85 44 -115 68 -115 22 0
36 34 47 113 3 26 9 47 13 47 4 0 15 -78 26 -172 10 -95 22 -181 27 -190 11
-23 47 -23 55 -1 7 18 -55 594 -68 631 -11 30 -47 29 -59 -2 -5 -13 -18 -73
-29 -132 -11 -59 -22 -109 -25 -111 -2 -2 -24 56 -48 129 -41 123 -47 133 -71
136 -21 3 -27 -2 -32 -20z"/>
<path d="M3725 3547 c-3 -7 -4 -156 -3 -332 l3 -320 100 -1 c93 -1 104 -3 144
-29 74 -50 116 -47 440 30 155 36 284 65 287 63 2 -2 -12 -67 -31 -143 -19
-77 -50 -248 -69 -379 l-34 -239 -89 -130 c-101 -150 -200 -259 -279 -312 -54
-36 -56 -37 -76 -18 -45 39 -78 162 -64 237 5 28 19 43 69 79 105 76 251 234
310 337 39 68 70 184 64 233 -15 109 -167 158 -292 95 -79 -41 -218 -207 -287
-343 -55 -108 -83 -203 -98 -339 -8 -70 -14 -84 -52 -134 -108 -140 -221 -237
-269 -230 -52 8 -87 122 -74 244 6 58 9 66 33 75 94 36 181 112 241 212 43 74
91 211 91 265 0 49 -27 83 -85 108 -48 20 -89 18 -136 -7 -214 -109 -406 -557
-332 -775 46 -138 135 -205 271 -203 103 1 188 51 273 161 24 31 47 57 51 57
4 1 10 -9 14 -21 9 -29 91 -116 129 -136 21 -11 56 -16 115 -17 71 0 93 4 133
25 64 32 185 160 258 273 l60 92 -6 -75 c-8 -95 8 -228 35 -280 11 -23 35 -49
53 -60 36 -22 105 -35 141 -26 85 21 168 175 233 431 13 55 43 154 64 220 54
162 60 192 43 206 -24 20 -51 0 -78 -61 -15 -33 -62 -151 -105 -263 -85 -219
-158 -377 -174 -377 -28 0 20 460 78 760 41 209 113 502 125 510 16 10 360 69
530 90 232 30 436 42 530 33 93 -9 141 -5 147 14 7 21 -48 63 -106 81 -74 22
-326 21 -506 -2 -113 -14 -462 -66 -551 -81 -31 -5 -32 -5 -32 34 0 22 -7 49
-14 60 -25 41 -114 66 -135 39 -5 -7 -24 -50 -42 -95 l-33 -82 -56 -11 c-73
-15 -229 -51 -412 -95 -186 -46 -274 -54 -320 -30 -23 12 -35 14 -38 6 -2 -6
-28 -11 -63 -11 l-59 0 0 115 0 114 57 3 c48 2 58 6 61 22 6 28 -25 46 -75 46
l-43 0 0 120 0 120 79 0 c82 0 110 13 97 45 -4 12 -27 15 -121 15 -84 0 -117
-3 -120 -13z m678 -967 c-1 -102 -47 -195 -162 -328 -45 -52 -161 -156 -167
-149 -6 5 23 118 56 216 37 113 94 203 185 291 61 58 68 62 78 45 6 -11 10
-44 10 -75z m-721 -154 c-18 -88 -59 -163 -133 -240 -37 -39 -70 -68 -73 -65
-11 10 34 140 75 220 45 86 115 167 132 150 7 -7 6 -27 -1 -65z"/>
<path d="M1915 3216 c-283 -94 -475 -229 -647 -456 -94 -123 -138 -250 -138
-391 1 -205 95 -337 523 -733 136 -125 197 -197 243 -286 24 -47 29 -67 29
-135 0 -70 -4 -87 -29 -133 -45 -80 -150 -174 -248 -221 -116 -56 -195 -74
-295 -69 -200 10 -317 137 -317 343 -1 112 9 153 38 161 33 8 104 -14 119 -36
17 -28 47 -26 47 2 0 31 -55 110 -98 139 -81 55 -267 28 -580 -85 -81 -30
-154 -57 -164 -61 -42 -17 -20 -92 34 -118 35 -16 36 -16 226 48 104 36 194
65 200 65 5 0 11 -50 14 -112 6 -164 44 -239 162 -322 122 -86 209 -111 391
-110 159 0 241 21 387 96 221 113 325 232 336 386 11 165 -68 273 -443 599
-245 214 -331 312 -375 431 -55 147 -24 311 93 481 49 71 166 190 247 250 84
63 212 132 296 161 51 18 55 18 50 2 -3 -9 -32 -120 -65 -247 -196 -747 -204
-1037 -31 -1125 42 -22 80 -26 80 -10 0 6 -12 33 -27 62 -60 114 -42 287 79
758 160 629 153 589 116 635 -24 31 -91 65 -128 64 -14 0 -70 -15 -125 -33z"/>
<path d="M2890 2868 c0 -7 25 -65 56 -129 82 -173 98 -260 98 -519 0 -225 -16
-348 -61 -475 -24 -68 -81 -175 -93 -175 -11 0 -48 73 -60 118 -22 83 -29 253
-19 447 5 105 7 199 5 211 -12 46 -114 61 -141 21 -8 -12 -23 -81 -34 -152
-16 -114 -30 -160 -111 -380 -89 -241 -139 -357 -159 -369 -13 -8 -18 12 -32
129 -12 108 -8 268 16 544 10 114 11 169 4 183 -13 25 -50 38 -104 38 -34 0
-47 -5 -55 -20 -19 -35 -52 -349 -52 -490 0 -325 98 -509 246 -460 67 22 109
85 173 261 32 87 61 159 64 159 3 0 15 -39 27 -86 39 -159 98 -225 207 -232
46 -3 72 1 100 14 72 34 141 159 175 320 27 127 38 431 21 555 -35 240 -108
406 -209 470 -51 32 -62 35 -62 17z"/>
<path d="M2793 1403 c-10 -3 -13 -44 -13 -154 l0 -149 -47 0 c-97 0 -93 -5
-93 140 0 71 -3 135 -6 144 -10 25 -53 20 -59 -6 -3 -13 -4 -162 -3 -333 3
-293 4 -310 22 -313 10 -2 22 0 26 5 5 4 11 73 15 152 3 80 6 145 8 146 1 1
32 0 69 -3 l67 -4 3 -142 3 -141 25 0 25 0 3 319 c2 343 0 358 -45 339z"/>
<path d="M3011 1374 c-22 -18 -37 -46 -53 -97 -20 -64 -23 -93 -23 -257 0
-159 3 -190 18 -218 50 -92 196 -98 244 -9 16 28 18 61 18 257 0 248 -6 282
-56 325 -42 35 -106 35 -148 -1z m108 -53 c25 -25 34 -119 29 -329 -3 -158 -4
-164 -27 -183 -31 -25 -54 -24 -86 4 -38 33 -50 127 -36 282 14 143 25 192 54
223 25 27 41 28 66 3z"/>
<path d="M3315 1378 c-8 -36 -25 -617 -18 -634 3 -9 15 -14 32 -12 25 3 26 5
32 93 4 50 7 146 8 215 2 138 5 139 46 15 28 -87 39 -105 65 -105 20 0 35 36
46 113 3 26 9 47 13 47 4 0 15 -78 26 -172 10 -95 22 -181 27 -190 5 -10 20
-18 33 -18 22 0 25 4 25 38 0 55 -66 608 -74 621 -13 20 -46 12 -56 -13 -5
-13 -18 -73 -29 -132 -11 -59 -22 -109 -25 -111 -2 -2 -24 56 -48 129 -41 123
-47 133 -71 136 -21 3 -27 -2 -32 -20z"/>
<path d="M3725 1388 c-3 -7 -4 -157 -3 -333 l3 -320 85 -3 c98 -3 125 1 134
24 12 31 -13 44 -85 44 l-69 0 0 115 0 114 57 3 c48 2 58 6 61 22 6 28 -25 46
-75 46 l-43 0 0 120 0 119 88 3 c85 3 87 3 87 28 l0 25 -118 3 c-89 2 -119 -1
-122 -10z"/>
</g>
</svg>
